<?xml version="1.0" encoding="utf-8"?>
<!-- Generator: Adobe Illustrator 25.4.1, SVG Export Plug-In . SVG Version: 6.00 Build 0)  -->
<svg version="1.1" id="svg8" xmlns:svg="http://www.w3.org/2000/svg"
	 xmlns="http://www.w3.org/2000/svg" xmlns:xlink="http://www.w3.org/1999/xlink" x="0px" y="0px" viewBox="0 0 295.7 147.7"
	 style="enable-background:new 0 0 295.7 147.7;" xml:space="preserve">
<style type="text/css">
	.st0{stroke:#000000;stroke-width:0.75;stroke-miterlimit:11.3386;}
</style>
<g id="layer1">
	<path id="path3953" class="st0" d="M46.1,24.4c-1.6,1.2-10.6,6.4-13.7,7.5c-3.1,1.1-7.8,3.2-9.1,4.3c-1.3,1.1-7.1,8.4-7.9,9.2
		c-0.8,0.8-11,17.3-12,18.4s-1.9,3.3-2.6,5C0.1,70.5-0.3,71,0,73.6c0.3,2.6,0.5,2.7,1.5,4.5c1.1,1.8,2.8,2.5,2.8,2.5
		s1.2,0.9,1.5,1.7c0.3,0.7,1.4,2.5,1.4,2.5S8.1,88,10.2,89c2.1,1,5.2,0.7,6.4,0.9c1.3,0.3,3.1,0.3,3.3,1c0.3,0.7,2.2,2.9,4.2,4
		s4.8,2,6.5,2.7c1.7,0.7,11,0.4,14,0.5c2.9,0.1,3.3-0.7,5.6,0.7c2.3,1.3,18,9.6,20.9,11.4c2.9,1.8,7.6,3.9,8.8,4.5
		c1.2,0.7,5.6,1.2,7.8,2.1c2.2,0.9,9.3,9.6,10.7,11.7c1.4,2.2,2.1,3.4,2.1,3.4l-6.3,0.7c0,0-5.6,0-6.1,0c-0.4,0-3.1,1.3-4.4,1.6
		c-1.3,0.3-2.2,0.4-3.4,1.4c-1.1,1-1.7,1.3-2.2,2.3c-0.5,0.9-0.8,2.7-0.5,2.3c0.2-0.4,1.5-1,1.9-0.9c0.5,0.1,1.3,1.2,1.4,1.9
		c0,0.7,0.4,1.8,1.4,2.1c1,0.4,0.5,0.6,2.4,0.5c1.9-0.1,2.4-0.9,4.2-0.9c1.8,0,4.1,0.9,4.9,0.7c0.9-0.3,1.6-0.2,3.1-1
		c1.5-0.8-0.4-1.4,2.9-1c3.4,0.4,5.5,0.7,5.9,0.7s6.7-1.7,8-2.2c1.3-0.5,3.1-1.5,3.1-1.5s-1.3,1.9-1.3,2.5c0,0.7,0.3,2.3,0.3,2.3
		s1.4-1.5,2.9-0.5c1.5,1,1.7,1.5,2.9,2c1.2,0.5,2.5,0.8,4,0.8c1.4,0,2.6-0.4,4.3-0.5c1.7-0.1,3.1-0.1,3.1-0.1l1.9,2.5
		c0,0,1.2-0.9,3.1-0.6c1.9,0.3,5,0.7,5.4,0.5c0.5-0.1,6-4.4,6-4.4s1.4-1.1,2.1-2.4c0.7-1.2,4.3-8.1,4.3-8.1s5.3,2.5,5.9,2.7
		c0.6,0.2,0.5-1.2,0.9-1.2c0.5,0,3.7,0.7,6.7,1.3c3,0.7,4.7,1,7.2,1.8c2.5,0.8,9.1,1.3,9.9,1.5c0.9,0.2,19.6-0.3,22-0.8
		c2.4-0.5,4.5-1.7,4.5-1.7s-0.2,0.2,1.8,1.3c2,1.1,3.5,1.9,6.3,1.1c2.7-0.8,5.2-2.6,7.3-2.6c2.1,0,2.2,0.8,5.7,0
		c3.5-0.8,6.3-1.8,7.9-2.5c1.6-0.7,21.8-6.5,23.3-6.5c1.5,0,7,0.7,10-0.7c3-1.3,4.8-1.9,6.1-3.2c1.2-1.3,4.4-6.4,4.7-7.7
		c0.4-1.2,1.6-6.7,1.5-9.9c-0.1-3.2-2-8.5-2.5-9.4c-0.5-0.9-12.4-22.7-12.8-24.8c-0.4-2.1-14.6-20.2-16.6-22
		c-2-1.7-17.4-12.9-19.8-14.3c-2.4-1.5-16.2-7.2-16.2-7.2s-22-6.8-24.9-6.4c-2.9,0.4-25-1.3-28.7-1.3c-3.6,0-8.6,0-11.5,0.7
		c-2.9,0.7-10.4,4.4-12.3,5.8c-1.9,1.3-2.4,2.8-3.7,3.5c-1.3,0.7-6.4,0.9-9.2,0.4s-11.5-2.8-11.5-2.8s1.7-10.6,1.7-11.4
		c0-0.8-1.1-5.2-2.4-6.8c-1.3-1.6-4.4-4.4-5.4-5.2c-0.9-0.8-5.1-3.5-6.2-3.7c-1.1-0.3-3.6-0.8-5.9-0.4s-4.4,0.9-5.2,1.5
		c-0.8,0.5-10.7,1.9-11.5,2.3c-0.8,0.4-4,4-6.3,5.4c-2.3,1.3-5.2,2.9-5.2,2.9s-7.9,3-9.8,4c-1.9,1-5.6,1.7-7.6,2.9
		C51.9,20.4,46.1,24.4,46.1,24.4L46.1,24.4z"/>
</g>
</svg>
