<?xml version="1.0" encoding="utf-8"?>
<!-- Generator: Adobe Illustrator 25.4.1, SVG Export Plug-In . SVG Version: 6.00 Build 0)  -->
<svg version="1.1" id="Layer_1" xmlns:svg="http://www.w3.org/2000/svg"
	 xmlns="http://www.w3.org/2000/svg" xmlns:xlink="http://www.w3.org/1999/xlink" x="0px" y="0px" viewBox="0 0 326 216.7"
	 style="enable-background:new 0 0 326 216.7;" xml:space="preserve">
<style type="text/css">
	.st0{fill-rule:evenodd;clip-rule:evenodd;}
</style>
<path id="path3" class="st0" d="M124.7,216.7c-2.1,0-4.2,0-6.2,0c-3.4-0.6-5.5-1.3-4.8-6c0.6-4.1,5.1-8.3,8.4-11.5
	c3.5-3.4,7.6-6.8,8.2-12c0.6-5.2-1.3-7.2-1-13.4c-2.2-0.3-3.1-2.6-5.3-3.1c-1.1-0.3-2.3,0.5-3.4,0c-1.1-0.5-1.3-2.1-2.6-2.4
	c-1.6-0.4-2.6,1.3-4.6,1.4c-2.6,0.1-3.8-1.1-5.3-3.1c-2,0.9-2.7-0.8-3.8-1.4c-0.8,0.4-1.6,0.8-2.6,1c-1.4-0.5-1.7-2-2.9-2.6
	c-1.2,1.3-2.9-0.1-4.8-0.2c-1.6-0.2-3.2,0.7-4.6,0c-0.6-0.3-0.6-1-1.4-2.2c-1.5-2-2.8-3.6-2.4-7c-2.2,0.4-4.3,0.8-5.3-1
	c-0.8,0.8-2.8,0.8-4.1,0.5c-1.9-1.9-0.8-6.7-3.1-8.2c-3.7,0.9-6.5,7.2-10.8,3.1c-0.7,2.5-3.8,2.5-5.3,0.7c0.1,3-3.6,1.2-4.1,1.4
	c-0.5,3.2-3.1,4.3-4.6,6.5c-1.7-0.2-2.1-0.1-3.4,0.5c0.1,2.9-1.9,3.9-3.1,5.8c-1.5,2.4-2.1,5.1-4.3,4.8c-1.9-0.3-2.3-3.3-3.1-5.3
	c-0.5-0.4-1.6-0.2-1.9-0.7c-0.8-2-1.9-4.1-2.9-6.2c-0.4-0.9-0.9-1.5-1-2.2c-0.1-1.4,0.5-2.8,0.2-3.8c-0.6-2.4-4.2-4.2-4.3-6.2
	c-0.1-1.3,1.4-2.3,1.2-3.4c-6.7-3.6-19-4-20.6-13.2c-0.5-2.9,0.8-6.6,0.7-9.6c-0.1-5.3-2.9-9.2-4.8-14.4c-2.2-6.2-0.3-14.4,0-22.1
	C1.3,75.3,1.3,69.3,3,64.8C6.5,55.5,13.8,51,19.3,43.9c-0.4-1.5-0.7-3.2,0-4.6c1.4-0.4,3.5-0.8,4.8,0c2.5-2.4,3.4-7,7.4-6.7
	c2.1,0.1,2.5,2.6,4.6,3.4c1.5,0.5,4.4,0.4,6.7,0.7c4.7,0.7,9.2,1.4,14.2,0.7c1.5-3,2.4-6.7,3.8-9.8c3.5-1.4,4.2-5.5,5.8-8.9
	c0.4-0.5,1.2-0.6,2.2-0.5c0.1-1,0.2-2.1,0.7-2.6c1.4-0.5,2.4-0.1,3.6-1c1-0.8,1-2.6,2.2-3.1c1.7-0.8,3.1,0.5,4.8,0.7
	c3.5,0.4,8.4-1.6,11.5,0.2c0.7-1.4,3.5-0.7,4.8-1.4c0.9,0,0.4,1.4,1.7,1c1.8-0.7,2.9-2.4,5.3-1.2c0.9-0.5,1.2-1.7,2.4-1.9
	c2.6,1.6,3.4-1.2,6.5,0c1.4-1.5,3.2-2.6,4.6-4.1c1.5,0.4,3.4,1.3,5,1c1.5-0.3,1.5-1.7,2.9-1.9c3.1,1.2,6-1.2,8.9-1.7
	c0.8-0.1,1.8,0.3,2.6,0.2c2.5-0.2,4.1-2.3,6.2-0.2c1.7-1.3,5.1-0.4,7.4-1.4c1-0.2,1.1,0.7,1.9,0.7c2-1.6,6-1.1,8.9-0.5
	c1.2-0.1,1.5-1.1,2.9-1c5.5,2.4,14.3,0.4,20.9,1.7c2.8,0.6,6,1.1,8.6,2.2c1,0.4,1.9,1.3,2.9,1.7c3.8,1.5,7.2,2.5,10.8,3.6
	c4.9,1.4,9.9,2.6,15.1,4.1c9.8,2.8,19.5,6.6,29.3,8.9c10.9,2.6,20.5,5.4,30.2,7.9c4.8,1.2,8.7,3.2,12.7,6.2
	c3.8,2.9,8.1,5.1,11.5,7.7c2.6,2,4.7,5.1,7,7.7c2.3,2.6,4.7,5.2,6.7,7.9c6,7.9,8.9,24.6,4.6,36.2c-1.4,3.8-2.4,7.1-3.1,11.5
	c-0.6,3.8-1.8,8-2.9,11.8c-0.5,1.6-1.1,3.7-1.9,5.5c-0.7,1.6-2.3,3.4-2.4,5c-0.4,5.3,5,8.3,3.8,14.9c-0.2,1.1-1.4,2.4-1.7,3.6
	c-0.5,2.2-0.5,5-1,7.9c-1.2,7.5-3.2,16.9-2.6,24.7c0.2,2.8,2.8,7.5,1.4,9.1c-0.9,1.1-2.8,0.5-4.3,0.7c-1.6,1.8-2.1,5.2-1,7.9
	c-2.1,3.9-17.7,5.1-17.5-1.7c0.1-2.2,2.3-3.3,3.4-4.8c2-2.7,3.8-5.7,5-8.4c4.7-9.9,4.6-28.1-1.2-35.8c-1-1.3-2.3-2-2.9-3.8
	c-0.5-1.4-0.3-2.9-0.7-4.3c-2.1-7.9-7.7-12.4-10.8-20.9c-2.1,1.5-5.8,1-7.2-0.7c-10,5.9-14.4,17.4-15.1,32.6
	c-3.4,4.4-6.8,9.9-10.3,14.2c-1.2,1.5-2.8,2.6-4.1,4.1c-1.9,2.1-2.7,4.9-4.3,7c-2,2.5-7.1,5-7.7,8.2c-0.4,2.1,0.9,4.3,0.5,6.2
	c-1.5-0.5-1.9,0.2-2.9,0.7c-0.3-2.2-3.6-2.3-5.3-1.2c2,9.7-15.8,5.6-16.3,1.4c-0.6-4.6,7.1-6.3,10.1-8.9c1.7-1.5,3.1-4.3,4.8-6.7
	c3.1-4.3,7.4-8.5,10.1-13c1.6-2.7,2.3-5.5,3.6-8.2c1.3-2.8,3.9-5.1,2.4-9.1c-0.8,4.3-7.6,2.7-10.6,1.4c0.4-4.1-0.4-7,1-11
	c-7.3,0.9-13.8,3.1-20.6,4.3c-6.8,1.2-12.6,4.8-19.2,6c0.9,1.4,1.4,3.4,2.4,4.6c0.8,0.9,1.6,0.6,1.9,1.7c0.1,0.4-0.3,1.4-0.2,2.2
	c0.4,6.6-3.1,14.2-5.8,19c4.2,3.6,8,12.8,4.3,19.7c-9.5-4.3-16.7-10.8-23.3-18c-1.6,2.7-2.2,6.5-2.4,10.6c-0.3,0.9-1.6,0.8-1.9,1.7
	c-0.2,3.4-2.7,4.5-3.6,7.2c-2.1-0.2-3.1,1.7-5,1.9c-1.2,0.1-2-0.6-3.1-0.7c-2-0.3-3.6,0-5.3-0.2c-2.7-1.6-3-5.6-7.9-5
	c-4.6,2.5,1.8,19.1-7,15.8C135.2,213.2,130.3,215.3,124.7,216.7L124.7,216.7z"/>
</svg>
